<?xml version="1.0" standalone="no"?>
<!DOCTYPE svg PUBLIC "-//W3C//DTD SVG 20010904//EN"
 "http://www.w3.org/TR/2001/REC-SVG-20010904/DTD/svg10.dtd">
<svg version="1.0" xmlns="http://www.w3.org/2000/svg"
 width="500.000000pt" height="500.000000pt" viewBox="0 0 500.000000 500.000000"
 preserveAspectRatio="xMidYMid meet">

<g transform="translate(0.000000,500.000000) scale(0.100000,-0.100000)"
fill="#000000" stroke="none">
<path d="M789 4709 c-11 -11 -18 -28 -15 -37 3 -9 102 -487 221 -1062 118
-575 218 -1053 221 -1062 5 -17 -5 -18 -116 -18 -67 0 -130 -5 -141 -10 -18
-10 -19 -24 -19 -323 0 -230 3 -316 12 -325 9 -9 168 -12 655 -12 l643 0 0
-360 0 -360 -139 0 c-102 0 -141 -3 -149 -13 -6 -7 -33 -94 -61 -193 -27 -98
-77 -280 -111 -403 -50 -182 -60 -229 -51 -248 l11 -23 748 0 c568 0 751 3
760 12 20 20 14 51 -48 277 -32 119 -80 290 -105 381 -65 236 -38 210 -210
210 l-145 0 0 360 0 360 644 0 c573 0 646 2 660 16 24 23 24 598 0 632 -14 21
-22 22 -140 22 -68 0 -124 4 -124 9 0 5 54 271 121 592 66 321 134 649 151
729 58 282 88 427 123 595 52 243 50 233 30 255 -18 20 -37 20 -1712 20
l-1693 0 -21 -21z m3261 -87 c0 -4 -103 -110 -229 -235 l-229 -227 -1088 0
-1088 0 -236 235 -235 235 1553 0 c853 0 1552 -4 1552 -8z m-2696 -596 c4 -33
18 -151 32 -261 45 -357 84 -675 114 -925 16 -135 32 -260 35 -277 l6 -33
-110 0 c-107 0 -111 1 -116 23 -2 12 -12 54 -21 92 -8 39 -28 135 -44 215 -16
80 -45 222 -65 315 -19 94 -47 224 -60 290 -14 66 -40 194 -59 285 -88 422
-156 756 -156 765 0 5 98 -89 219 -209 l219 -219 6 -61z m2740 477 c-11 -47
-404 -1958 -404 -1965 0 -4 -49 -8 -110 -8 -96 0 -110 2 -110 17 0 18 163
1340 181 1468 l11 80 217 212 c119 117 217 212 218 213 0 0 -1 -8 -3 -17z
m-542 -473 c-1 -19 -9 -87 -17 -150 -29 -225 -165 -1325 -165 -1337 0 -10
-180 -13 -865 -13 l-865 0 -4 23 c-3 12 -39 301 -81 642 -42 341 -82 669 -90
730 -8 60 -15 117 -15 127 0 17 46 18 1053 16 l1052 -3 -3 -35z m416 -1837
l-3 -238 -1462 -3 -1463 -2 0 240 0 240 1465 0 1465 0 -2 -237z m-1318 -693
l0 -361 -147 3 -148 3 -3 358 -2 357 150 0 150 0 0 -360z m356 -575 c18 -66
43 -160 57 -210 14 -49 39 -142 56 -205 18 -63 34 -123 37 -132 5 -17 -31 -18
-650 -18 -361 0 -656 3 -656 8 1 20 166 626 180 660 l10 22 467 -2 466 -3 33
-120z"/>
<path d="M1730 3893 c-19 -7 -40 -33 -40 -49 0 -7 7 -20 16 -28 12 -13 41 -16
153 -16 148 0 161 4 161 52 0 21 -6 31 -26 38 -26 10 -237 13 -264 3z"/>
<path d="M2153 3890 c-26 -10 -32 -57 -11 -78 9 -9 100 -12 348 -12 320 0 338
1 354 19 23 25 13 59 -21 72 -31 12 -640 11 -670 -1z"/>
<path d="M3028 3893 c-22 -5 -35 -50 -21 -72 8 -13 34 -17 143 -19 141 -3 160
2 160 44 0 43 -33 54 -155 53 -60 -1 -118 -3 -127 -6z"/>
<path d="M1756 3508 c-20 -29 -20 -34 4 -58 20 -20 33 -20 744 -20 645 0 726
2 740 16 22 21 20 61 -3 74 -13 7 -264 10 -745 10 l-725 0 -15 -22z"/>
<path d="M1818 3158 c-21 -18 -27 -39 -17 -65 l8 -23 324 0 c341 0 347 1 347
46 0 51 -20 54 -345 54 -226 0 -305 -3 -317 -12z"/>
<path d="M2672 3154 c-24 -17 -29 -53 -10 -72 17 -17 519 -17 536 0 19 19 14
55 -10 72 -19 13 -61 16 -258 16 -197 0 -239 -3 -258 -16z"/>
<path d="M1854 2775 c-15 -23 -15 -27 0 -50 16 -24 21 -25 115 -25 82 0 101 3
114 18 22 24 21 45 -1 65 -15 13 -39 17 -115 17 -92 0 -97 -1 -113 -25z"/>
<path d="M2160 2781 c-15 -28 -12 -46 8 -64 17 -15 65 -17 490 -17 414 0 472
2 486 16 9 8 16 24 16 34 0 10 -7 26 -16 34 -14 14 -72 16 -494 16 -464 0
-480 -1 -490 -19z"/>
</g>
</svg>
